<?xml version="1.0" encoding="UTF-8" standalone="no"?>
<!-- Created with Inkscape (http://www.inkscape.org/) -->

<svg
   width="512.00006"
   height="512.00006"
   viewBox="0 0 135.46668 135.46668"
   version="1.1"
   id="svg5"
   xml:space="preserve"
   sodipodi:docname="icon.svg"
   inkscape:version="1.3.2 (091e20ef0f, 2023-11-25)"
   inkscape:export-filename="icon-light.png"
   inkscape:export-xdpi="96"
   inkscape:export-ydpi="96"
   xmlns:inkscape="http://www.inkscape.org/namespaces/inkscape"
   xmlns:sodipodi="http://sodipodi.sourceforge.net/DTD/sodipodi-0.dtd"
   xmlns="http://www.w3.org/2000/svg"
   xmlns:svg="http://www.w3.org/2000/svg"><sodipodi:namedview
     id="namedview7"
     pagecolor="#ffffff"
     bordercolor="#999999"
     borderopacity="1"
     inkscape:showpageshadow="0"
     inkscape:pageopacity="0"
     inkscape:pagecheckerboard="0"
     inkscape:deskcolor="#d1d1d1"
     inkscape:document-units="mm"
     showgrid="true"
     inkscape:zoom="2"
     inkscape:cx="288"
     inkscape:cy="246.25"
     inkscape:window-width="2560"
     inkscape:window-height="1371"
     inkscape:window-x="0"
     inkscape:window-y="0"
     inkscape:window-maximized="1"
     inkscape:current-layer="g19211"
     inkscape:lockguides="true"><inkscape:grid
       type="xygrid"
       id="grid365"
       spacingx="3.96875"
       spacingy="3.96875"
       originx="-35.718751"
       originy="-79.374985"
       units="mm"
       visible="true" /></sodipodi:namedview><defs
     id="defs2"><clipPath
       clipPathUnits="userSpaceOnUse"
       id="clipPath1"><circle
         style="fill:#ffffff;fill-opacity:1;stroke-width:0.0626065;-inkscape-stroke:none;stop-color:#000000"
         id="ellipse1"
         cx="103.4521"
         cy="147.10834"
         r="67.733345" /></clipPath><filter
       style="color-interpolation-filters:sRGB;"
       inkscape:label="Drop Shadow"
       id="filter41"
       x="-0.21549388"
       y="-0.24199342"
       width="1.4094435"
       height="1.4839868"><feFlood
         result="flood"
         in="SourceGraphic"
         flood-opacity="0.498039"
         flood-color="rgb(0,0,0)"
         id="feFlood40" /><feGaussianBlur
         result="blur"
         in="SourceGraphic"
         stdDeviation="0.800000"
         id="feGaussianBlur40" /><feOffset
         result="offset"
         in="blur"
         dx="0.000000"
         dy="0.000000"
         id="feOffset40" /><feComposite
         result="comp1"
         operator="in"
         in="flood"
         in2="offset"
         id="feComposite40" /><feComposite
         result="comp2"
         operator="over"
         in="SourceGraphic"
         in2="comp1"
         id="feComposite41" /></filter><filter
       style="color-interpolation-filters:sRGB;"
       inkscape:label="Drop Shadow"
       id="filter43"
       x="-0.83260845"
       y="-0.31708879"
       width="2.6656034"
       height="1.6341835"><feFlood
         result="flood"
         in="SourceGraphic"
         flood-opacity="0.498039"
         flood-color="rgb(0,0,0)"
         id="feFlood41" /><feGaussianBlur
         result="blur"
         in="SourceGraphic"
         stdDeviation="0.800000"
         id="feGaussianBlur41" /><feOffset
         result="offset"
         in="blur"
         dx="0.000000"
         dy="0.000000"
         id="feOffset41" /><feComposite
         result="comp1"
         operator="in"
         in="flood"
         in2="offset"
         id="feComposite42" /><feComposite
         result="comp2"
         operator="over"
         in="SourceGraphic"
         in2="comp1"
         id="feComposite43" /></filter><filter
       style="color-interpolation-filters:sRGB;"
       inkscape:label="Drop Shadow"
       id="filter45"
       x="-0.51727928"
       y="-0.4621759"
       width="2.0340486"
       height="1.924189"><feFlood
         result="flood"
         in="SourceGraphic"
         flood-opacity="0.498039"
         flood-color="rgb(0,0,0)"
         id="feFlood43" /><feGaussianBlur
         result="blur"
         in="SourceGraphic"
         stdDeviation="0.800000"
         id="feGaussianBlur43" /><feOffset
         result="offset"
         in="blur"
         dx="0.000000"
         dy="0.000000"
         id="feOffset43" /><feComposite
         result="comp1"
         operator="in"
         in="flood"
         in2="offset"
         id="feComposite44" /><feComposite
         result="comp2"
         operator="over"
         in="SourceGraphic"
         in2="comp1"
         id="feComposite45" /></filter><filter
       style="color-interpolation-filters:sRGB;"
       inkscape:label="Drop Shadow"
       id="filter94"
       x="-0.43215843"
       y="-0.71827778"
       width="1.8643169"
       height="2.4365556"><feFlood
         result="flood"
         in="SourceGraphic"
         flood-opacity="1.000000"
         flood-color="rgb(0,0,0)"
         id="feFlood93" /><feGaussianBlur
         result="blur"
         in="SourceGraphic"
         stdDeviation="7.000000"
         id="feGaussianBlur93" /><feOffset
         result="offset"
         in="blur"
         dx="0.000000"
         dy="0.000000"
         id="feOffset93" /><feComposite
         result="comp1"
         operator="out"
         in="flood"
         in2="offset"
         id="feComposite93" /><feComposite
         result="comp2"
         operator="in"
         in="SourceGraphic"
         in2="comp1"
         id="feComposite94" /></filter><filter
       style="color-interpolation-filters:sRGB;"
       inkscape:label="Drop Shadow"
       id="filter125"
       x="-0.072660014"
       y="-0.072658929"
       width="1.14532"
       height="1.1453179"><feFlood
         result="flood"
         in="SourceGraphic"
         flood-opacity="1.000000"
         flood-color="rgb(255,255,255)"
         id="feFlood124" /><feGaussianBlur
         result="blur"
         in="SourceGraphic"
         stdDeviation="1.000000"
         id="feGaussianBlur124" /><feOffset
         result="offset"
         in="blur"
         dx="0.000000"
         dy="0.000000"
         id="feOffset124" /><feComposite
         result="comp1"
         operator="out"
         in="flood"
         in2="offset"
         id="feComposite124" /><feComposite
         result="comp2"
         operator="atop"
         in="comp1"
         in2="SourceGraphic"
         id="feComposite125" /></filter><filter
       style="color-interpolation-filters:sRGB;"
       inkscape:label="Drop Shadow"
       id="filter227"
       x="-0.013664548"
       y="-0.013694195"
       width="1.0273291"
       height="1.0273884"><feFlood
         result="flood"
         in="SourceGraphic"
         flood-opacity="0.674510"
         flood-color="rgb(0,0,0)"
         id="feFlood226" /><feGaussianBlur
         result="blur"
         in="SourceGraphic"
         stdDeviation="0.500000"
         id="feGaussianBlur226" /><feOffset
         result="offset"
         in="blur"
         dx="0.000000"
         dy="0.000000"
         id="feOffset226" /><feComposite
         result="comp1"
         operator="in"
         in="offset"
         in2="flood"
         id="feComposite226" /><feComposite
         result="comp2"
         operator="over"
         in="SourceGraphic"
         in2="comp1"
         id="feComposite227" /></filter></defs><g
     inkscape:label="Layer 1"
     inkscape:groupmode="layer"
     id="layer1"
     transform="translate(-35.718758,-79.375)"><circle
       style="opacity:1;fill:#ffffff;fill-opacity:1;stroke:#ffffff;stroke-width:0;stroke-dasharray:none;stroke-opacity:1"
       id="path118"
       cx="103.4521"
       cy="147.10835"
       r="67.733337"
       sodipodi:insensitive="true" /><g
       id="g15008"
       transform="matrix(1.0416392,0,0,1.0416392,0.10088714,2.4181503)"><g
         id="g19211"><path
           id="path13930"
           style="fill:#4d4d4d;fill-opacity:1;stroke-width:0.0171567;-inkscape-stroke:none;stop-color:#000000"
           d="m 71.437508,111.125 c 0,0 -4.43955,7.7345 -0.38103,7.92837 0.222617,0.0106 0.33617,0.39428 0.36148,0.58515 0.295044,2.22484 0.905521,4.43741 2.081443,6.01066 2.765325,3.69968 12.713224,6.72747 16.395381,7.74526 -0.870415,-0.49747 -1.407595,-1.42314 -1.407666,-2.42569 4e-6,-1.54316 1.250984,-2.79414 2.794145,-2.79414 0,0 -12.531866,0.29271 -16.374194,-3.85662 -1.166976,-1.26022 -1.945137,-2.9719 -2.463016,-4.74458 -0.05406,-0.18506 -0.0314,-0.57101 0.245189,-0.61021 3.988178,-0.56516 -1.251729,-7.8382 -1.251729,-7.8382 z"
           sodipodi:nodetypes="cssscccssscc" /><path
           id="path13932"
           style="fill:#4d4d4d;fill-opacity:1;stroke-width:0.0171567;-inkscape-stroke:none;stop-color:#000000"
           d="m 91.281078,133.76311 c 0,0 -11.292554,0.24769 -11.71209,2.37684 -0.07232,0.36705 -0.8888,1.05371 -1.338993,1.12021 -2.57971,0.38123 -6.377904,0.73791 -9.878479,1.02099 -0.306275,0.0248 -0.944623,-0.3634 -0.989733,-0.67322 -0.619968,-4.25815 -7.83055,1.29831 -7.83055,1.29831 0,0 7.500659,3.76025 7.86875,1.04084 0.03582,-0.26464 0.558262,-0.44746 0.828995,-0.42566 3.433514,0.27653 7.171522,0.6249 9.774792,0.99816 0.538565,0.0772 1.274604,0.67049 1.199587,1.09987 -0.595895,3.4108 12.077721,2.42993 12.077721,2.42993 v -5.14314 z" /><circle
           style="fill:#000000;stroke-width:0.0068624;-inkscape-stroke:none;stop-color:#000000"
           id="circle13394"
           cx="71.437508"
           cy="111.12502"
           r="7.9374995" /><path
           id="path13754"
           style="fill:#000000;stroke-width:0.0068624;-inkscape-stroke:none;stop-color:#000000"
           d="m 59.531233,130.96854 a 7.9374995,7.9374995 0 0 0 -7.93771,7.9377 7.9374995,7.9374995 0 0 0 7.93771,7.93771 7.9374995,7.9374995 0 0 0 7.937709,-7.93771 7.9374995,7.9374995 0 0 0 -7.937709,-7.9377 z" /><path
           id="path14033"
           style="fill:#4d4d4d;fill-opacity:1;stroke-width:0.0171567;-inkscape-stroke:none;stop-color:#000000"
           d="m 71.437508,166.6875 c 0,0 -4.649956,-7.69645 -0.597986,-7.91497 0.418288,-0.0226 0.554146,-0.41676 0.581176,-0.61919 0.296078,-2.21788 0.906411,-4.42164 2.078696,-5.99002 2.765325,-3.69968 12.713224,-6.72747 16.395381,-7.74526 -0.870415,0.49747 -1.407595,1.42314 -1.407666,2.42569 4e-6,1.54316 -1.543161,0 0,0 0,0 -9.737721,2.50143 -13.580049,6.65076 -1.175886,1.26984 -1.956999,2.99807 -2.474833,4.78519 -0.04998,0.17247 0.09652,0.52346 0.278815,0.57311 1.601599,0.43619 -1.273538,7.83469 -1.273538,7.83469 z"
           sodipodi:nodetypes="cssscccssscc" /><circle
           style="fill:#000000;stroke-width:0.0068624;-inkscape-stroke:none;stop-color:#000000"
           id="circle14037"
           cx="71.437508"
           cy="-166.68747"
           r="7.9374995"
           transform="scale(1,-1)" /><path
           id="path13764"
           style="fill:#000000;stroke-width:0.0171567;-inkscape-stroke:none;stop-color:#000000"
           d="M 99.219779,119.06148 A 19.844616,19.844616 0 0 0 79.37501,138.90624 c -2.5e-5,3.01139 -0.900865,9.35824 -3.219734,10.97091 -1.05093,0.73087 -0.166474,2.60888 0.648908,1.9884 2.545877,-1.9373 15.283614,-3.99211 16.515893,-6.58483 1.232278,-2.59272 2.465706,-4.79953 5.899702,-6.37448 z m -7.938701,9.11298 a 2.7941468,2.7941468 0 0 1 2.794569,2.79408 2.7941468,2.7941468 0 0 1 -0.04862,0.49065 4.3346281,2.1673141 0 0 0 -2.745951,-0.49065 4.3346281,2.1673141 0 0 0 -2.745456,0.49065 2.7941468,2.7941468 0 0 1 -0.04862,-0.49065 2.7941468,2.7941468 0 0 1 2.794074,-2.79408 z" /></g><g
         id="g19227"
         transform="matrix(-1,0,0,1,198.43956,0)"><path
           id="path19213"
           style="fill:#4d4d4d;fill-opacity:1;stroke-width:0.0171567;-inkscape-stroke:none;stop-color:#000000"
           d="m 71.437508,111.125 c 0,0 -4.43955,7.7345 -0.38103,7.92837 0.222617,0.0106 0.33617,0.39428 0.36148,0.58515 0.295044,2.22484 0.905521,4.43741 2.081443,6.01066 2.765325,3.69968 12.713224,6.72747 16.395381,7.74526 -0.870415,-0.49747 -1.407595,-1.42314 -1.407666,-2.42569 4e-6,-1.54316 1.250984,-2.79414 2.794145,-2.79414 0,0 -12.531866,0.29271 -16.374194,-3.85662 -1.166976,-1.26022 -1.945137,-2.9719 -2.463016,-4.74458 -0.05406,-0.18506 -0.0314,-0.57101 0.245189,-0.61021 3.988178,-0.56516 -1.251729,-7.8382 -1.251729,-7.8382 z"
           sodipodi:nodetypes="cssscccssscc" /><path
           id="path19215"
           style="fill:#4d4d4d;fill-opacity:1;stroke-width:0.0171567;-inkscape-stroke:none;stop-color:#000000"
           d="m 91.281078,133.76311 c 0,0 -11.292554,0.24769 -11.71209,2.37684 -0.07232,0.36705 -0.8888,1.05371 -1.338993,1.12021 -2.57971,0.38123 -6.377904,0.73791 -9.878479,1.02099 -0.306275,0.0248 -0.944623,-0.3634 -0.989733,-0.67322 -0.619968,-4.25815 -7.83055,1.29831 -7.83055,1.29831 0,0 7.500659,3.76025 7.86875,1.04084 0.03582,-0.26464 0.558262,-0.44746 0.828995,-0.42566 3.433514,0.27653 7.171522,0.6249 9.774792,0.99816 0.538565,0.0772 1.274604,0.67049 1.199587,1.09987 -0.595895,3.4108 12.077721,2.42993 12.077721,2.42993 v -5.14314 z" /><circle
           style="fill:#000000;stroke-width:0.0068624;-inkscape-stroke:none;stop-color:#000000"
           id="circle19217"
           cx="71.437508"
           cy="111.12502"
           r="7.9374995" /><path
           id="path19219"
           style="fill:#000000;stroke-width:0.0068624;-inkscape-stroke:none;stop-color:#000000"
           d="m 59.531233,130.96854 a 7.9374995,7.9374995 0 0 0 -7.93771,7.9377 7.9374995,7.9374995 0 0 0 7.93771,7.93771 7.9374995,7.9374995 0 0 0 7.937709,-7.93771 7.9374995,7.9374995 0 0 0 -7.937709,-7.9377 z" /><path
           id="path19221"
           style="fill:#4d4d4d;fill-opacity:1;stroke-width:0.0171567;-inkscape-stroke:none;stop-color:#000000"
           d="m 71.437508,166.6875 c 0,0 -4.649956,-7.69645 -0.597986,-7.91497 0.418288,-0.0226 0.554146,-0.41676 0.581176,-0.61919 0.296078,-2.21788 0.906411,-4.42164 2.078696,-5.99002 2.765325,-3.69968 12.713224,-6.72747 16.395381,-7.74526 -0.870415,0.49747 -1.407595,1.42314 -1.407666,2.42569 4e-6,1.54316 -1.543161,0 0,0 0,0 -9.737721,2.50143 -13.580049,6.65076 -1.175886,1.26984 -1.956999,2.99807 -2.474833,4.78519 -0.04998,0.17247 0.09652,0.52346 0.278815,0.57311 1.601599,0.43619 -1.273538,7.83469 -1.273538,7.83469 z"
           sodipodi:nodetypes="cssscccssscc" /><circle
           style="fill:#000000;stroke-width:0.0068624;-inkscape-stroke:none;stop-color:#000000"
           id="circle19223"
           cx="71.437508"
           cy="-166.68747"
           r="7.9374995"
           transform="scale(1,-1)" /><path
           id="path19225"
           style="fill:#000000;stroke-width:0.0171567;-inkscape-stroke:none;stop-color:#000000"
           d="M 99.219779,119.06148 A 19.844616,19.844616 0 0 0 79.37501,138.90624 c -2.5e-5,3.01139 -0.900865,9.35824 -3.219734,10.97091 -1.05093,0.73087 -0.166474,2.60888 0.648908,1.9884 2.545877,-1.9373 15.283614,-3.99211 16.515893,-6.58483 1.232278,-2.59272 2.465706,-4.79953 5.899702,-6.37448 z m -7.938701,9.11298 a 2.7941468,2.7941468 0 0 1 2.794569,2.79408 2.7941468,2.7941468 0 0 1 -0.04862,0.49065 4.3346281,2.1673141 0 0 0 -2.745951,-0.49065 4.3346281,2.1673141 0 0 0 -2.745456,0.49065 2.7941468,2.7941468 0 0 1 -0.04862,-0.49065 2.7941468,2.7941468 0 0 1 2.794074,-2.79408 z" /></g></g></g></svg>
