<?xml version="1.0" encoding="UTF-8" standalone="no"?>
<!-- Created with Inkscape (http://www.inkscape.org/) -->

<svg
   width="1730"
   height="512"
   viewBox="0 0 457.73006 135.46666"
   version="1.1"
   id="svg5"
   xml:space="preserve"
   sodipodi:docname="logo-light.svg"
   inkscape:version="1.2.2 (b0a8486541, 2022-12-01)"
   inkscape:export-filename="logo-light.png"
   inkscape:export-xdpi="109.47681"
   inkscape:export-ydpi="109.47681"
   xmlns:inkscape="http://www.inkscape.org/namespaces/inkscape"
   xmlns:sodipodi="http://sodipodi.sourceforge.net/DTD/sodipodi-0.dtd"
   xmlns="http://www.w3.org/2000/svg"
   xmlns:svg="http://www.w3.org/2000/svg"><sodipodi:namedview
     id="namedview7"
     pagecolor="#ffffff"
     bordercolor="#999999"
     borderopacity="1"
     inkscape:showpageshadow="0"
     inkscape:pageopacity="0"
     inkscape:pagecheckerboard="0"
     inkscape:deskcolor="#d1d1d1"
     inkscape:document-units="mm"
     showgrid="true"
     inkscape:zoom="1.4142136"
     inkscape:cx="471.28666"
     inkscape:cy="379.71633"
     inkscape:window-width="2560"
     inkscape:window-height="1371"
     inkscape:window-x="0"
     inkscape:window-y="0"
     inkscape:window-maximized="1"
     inkscape:current-layer="g15008"
     inkscape:lockguides="true"><inkscape:grid
       type="xygrid"
       id="grid365"
       spacingx="3.96875"
       spacingy="3.96875"
       originx="-35.721072"
       originy="-79.374241" /></sodipodi:namedview><defs
     id="defs2" /><g
     inkscape:label="Layer 1"
     inkscape:groupmode="layer"
     id="layer1"
     transform="translate(-35.718758,-79.375)"><text
       xml:space="preserve"
       style="font-size:78.5714px;font-family:Overpass;-inkscape-font-specification:Overpass;fill:#ffffff;stroke-width:0.026536;-inkscape-stroke:none;stop-color:#000000"
       x="183.35872"
       y="167.5369"
       id="text452"><tspan
         sodipodi:role="line"
         id="tspan450"
         style="fill:#1a1a1a;stroke-width:0.026536"
         x="183.35872"
         y="167.5369">hydrapp</tspan></text><g
       id="g14876"
       transform="matrix(1.000002,0,0,1.000002,-7.869632e-5,-2.866466e-4)"><ellipse
         style="fill:#ffffff;fill-opacity:1;stroke-width:0.0626064;-inkscape-stroke:none;stop-color:#000000"
         id="path15885"
         cx="103.4521"
         cy="147.10834"
         rx="67.733337"
         ry="67.733345" /><g
         id="g15825"
         transform="matrix(1.0416392,0,0,1.0416392,0.10087998,2.4181503)"><g
           id="g15008"><g
             id="g19227"
             transform="matrix(-1,0,0,1,198.43956,0)"><path
               id="path19213"
               style="fill:#4d4d4d;fill-opacity:1;stroke-width:0.0171567;-inkscape-stroke:none;stop-color:#000000"
               d="m 71.437508,111.125 c 0,0 -4.43955,7.7345 -0.38103,7.92837 0.222617,0.0106 0.33617,0.39428 0.36148,0.58515 0.295044,2.22484 0.905521,4.43741 2.081443,6.01066 2.765325,3.69968 12.713224,6.72747 16.395381,7.74526 -0.870415,-0.49747 -1.407595,-1.42314 -1.407666,-2.42569 4e-6,-1.54316 1.250984,-2.79414 2.794145,-2.79414 0,0 -12.531866,0.29271 -16.374194,-3.85662 -1.166976,-1.26022 -1.945137,-2.9719 -2.463016,-4.74458 -0.05406,-0.18506 -0.0314,-0.57101 0.245189,-0.61021 3.988178,-0.56516 -1.251729,-7.8382 -1.251729,-7.8382 z"
               sodipodi:nodetypes="cssscccssscc" /><path
               id="path19215"
               style="fill:#4d4d4d;fill-opacity:1;stroke-width:0.0171567;-inkscape-stroke:none;stop-color:#000000"
               d="m 91.281078,133.76311 c 0,0 -11.292554,0.24769 -11.71209,2.37684 -0.07232,0.36705 -0.8888,1.05371 -1.338993,1.12021 -2.57971,0.38123 -6.377904,0.73791 -9.878479,1.02099 -0.306275,0.0248 -0.944623,-0.3634 -0.989733,-0.67322 -0.619968,-4.25815 -7.83055,1.29831 -7.83055,1.29831 0,0 7.500659,3.76025 7.86875,1.04084 0.03582,-0.26464 0.558262,-0.44746 0.828995,-0.42566 3.433514,0.27653 7.171522,0.6249 9.774792,0.99816 0.538565,0.0772 1.274604,0.67049 1.199587,1.09987 -0.595895,3.4108 12.077721,2.42993 12.077721,2.42993 v -5.14314 z" /><circle
               style="fill:#000000;stroke-width:0.0068624;-inkscape-stroke:none;stop-color:#000000"
               id="circle19217"
               cx="71.437508"
               cy="111.12502"
               r="7.9374995" /><path
               id="path19219"
               style="fill:#000000;stroke-width:0.0068624;-inkscape-stroke:none;stop-color:#000000"
               d="m 59.531233,130.96854 a 7.9374995,7.9374995 0 0 0 -7.93771,7.9377 7.9374995,7.9374995 0 0 0 7.93771,7.93771 7.9374995,7.9374995 0 0 0 7.937709,-7.93771 7.9374995,7.9374995 0 0 0 -7.937709,-7.9377 z" /><path
               id="path19221"
               style="fill:#4d4d4d;fill-opacity:1;stroke-width:0.0171567;-inkscape-stroke:none;stop-color:#000000"
               d="m 71.437508,166.6875 c 0,0 -4.649956,-7.69645 -0.597986,-7.91497 0.418288,-0.0226 0.554146,-0.41676 0.581176,-0.61919 0.296078,-2.21788 0.906411,-4.42164 2.078696,-5.99002 2.765325,-3.69968 12.713224,-6.72747 16.395381,-7.74526 -0.870415,0.49747 -1.407595,1.42314 -1.407666,2.42569 4e-6,1.54316 -1.543161,0 0,0 0,0 -9.737721,2.50143 -13.580049,6.65076 -1.175886,1.26984 -1.956999,2.99807 -2.474833,4.78519 -0.04998,0.17247 0.09652,0.52346 0.278815,0.57311 1.601599,0.43619 -1.273538,7.83469 -1.273538,7.83469 z"
               sodipodi:nodetypes="cssscccssscc" /><circle
               style="fill:#000000;stroke-width:0.0068624;-inkscape-stroke:none;stop-color:#000000"
               id="circle19223"
               cx="71.437508"
               cy="-166.68747"
               r="7.9374995"
               transform="scale(1,-1)" /></g><g
             id="g19211"><path
               id="path13930"
               style="fill:#4d4d4d;fill-opacity:1;stroke-width:0.0171567;-inkscape-stroke:none;stop-color:#000000"
               d="m 71.437508,111.125 c 0,0 -4.43955,7.7345 -0.38103,7.92837 0.222617,0.0106 0.33617,0.39428 0.36148,0.58515 0.295044,2.22484 0.905521,4.43741 2.081443,6.01066 2.765325,3.69968 12.713224,6.72747 16.395381,7.74526 -0.870415,-0.49747 -1.407595,-1.42314 -1.407666,-2.42569 4e-6,-1.54316 1.250984,-2.79414 2.794145,-2.79414 0,0 -12.531866,0.29271 -16.374194,-3.85662 -1.166976,-1.26022 -1.945137,-2.9719 -2.463016,-4.74458 -0.05406,-0.18506 -0.0314,-0.57101 0.245189,-0.61021 3.988178,-0.56516 -1.251729,-7.8382 -1.251729,-7.8382 z"
               sodipodi:nodetypes="cssscccssscc" /><path
               id="path13932"
               style="fill:#4d4d4d;fill-opacity:1;stroke-width:0.0171567;-inkscape-stroke:none;stop-color:#000000"
               d="m 91.281078,133.76311 c 0,0 -11.292554,0.24769 -11.71209,2.37684 -0.07232,0.36705 -0.8888,1.05371 -1.338993,1.12021 -2.57971,0.38123 -6.377904,0.73791 -9.878479,1.02099 -0.306275,0.0248 -0.944623,-0.3634 -0.989733,-0.67322 -0.619968,-4.25815 -7.83055,1.29831 -7.83055,1.29831 0,0 7.500659,3.76025 7.86875,1.04084 0.03582,-0.26464 0.558262,-0.44746 0.828995,-0.42566 3.433514,0.27653 7.171522,0.6249 9.774792,0.99816 0.538565,0.0772 1.274604,0.67049 1.199587,1.09987 -0.595895,3.4108 12.077721,2.42993 12.077721,2.42993 v -5.14314 z" /><circle
               style="fill:#000000;stroke-width:0.0068624;-inkscape-stroke:none;stop-color:#000000"
               id="circle13394"
               cx="71.437508"
               cy="111.12502"
               r="7.9374995" /><path
               id="path13754"
               style="fill:#000000;stroke-width:0.0068624;-inkscape-stroke:none;stop-color:#000000"
               d="m 59.531233,130.96854 a 7.9374995,7.9374995 0 0 0 -7.93771,7.9377 7.9374995,7.9374995 0 0 0 7.93771,7.93771 7.9374995,7.9374995 0 0 0 7.937709,-7.93771 7.9374995,7.9374995 0 0 0 -7.937709,-7.9377 z" /><path
               id="path14033"
               style="fill:#4d4d4d;fill-opacity:1;stroke-width:0.0171567;-inkscape-stroke:none;stop-color:#000000"
               d="m 71.437508,166.6875 c 0,0 -4.649956,-7.69645 -0.597986,-7.91497 0.418288,-0.0226 0.554146,-0.41676 0.581176,-0.61919 0.296078,-2.21788 0.906411,-4.42164 2.078696,-5.99002 2.765325,-3.69968 12.713224,-6.72747 16.395381,-7.74526 -0.870415,0.49747 -1.407595,1.42314 -1.407666,2.42569 4e-6,1.54316 -1.543161,0 0,0 0,0 -9.737721,2.50143 -13.580049,6.65076 -1.175886,1.26984 -1.956999,2.99807 -2.474833,4.78519 -0.04998,0.17247 0.09652,0.52346 0.278815,0.57311 1.601599,0.43619 -1.273538,7.83469 -1.273538,7.83469 z"
               sodipodi:nodetypes="cssscccssscc" /><circle
               style="fill:#000000;stroke-width:0.0068624;-inkscape-stroke:none;stop-color:#000000"
               id="circle14037"
               cx="71.437508"
               cy="-166.68747"
               r="7.9374995"
               transform="scale(1,-1)" /><path
               id="path13764"
               style="fill:#000000;stroke-width:0.0171567;-inkscape-stroke:none;stop-color:#000000"
               d="M 99.219783 119.06146 C 88.259799 119.06138 79.374935 127.94625 79.375015 138.90623 C 79.37499 141.91761 78.474148 148.26447 76.155281 149.87713 C 75.104352 150.608 75.988808 152.48601 76.804189 151.86553 C 79.350064 149.92823 92.087803 147.87342 93.320081 145.2807 C 94.552358 142.68799 95.78579 140.48118 99.219783 138.90623 C 102.65378 140.48118 103.88721 142.68799 105.11949 145.2807 C 106.35176 147.87342 119.0895 149.92823 121.63538 151.86553 C 122.45076 152.48601 123.33521 150.608 122.28428 149.87713 C 119.96542 148.26447 119.06458 141.91761 119.06455 138.90623 C 119.06463 127.94625 110.17977 119.06138 99.219783 119.06146 z M 91.281082 128.17445 C 92.824383 128.17422 94.075614 129.42522 94.075651 130.96852 C 94.073951 131.13318 94.057663 131.29737 94.027033 131.45917 C 93.25251 131.14197 92.282257 130.9686 91.281082 130.96852 C 90.280077 130.96866 89.310018 131.14202 88.535627 131.45917 C 88.504997 131.29737 88.488728 131.13318 88.487008 130.96852 C 88.487045 129.42541 89.737973 128.17449 91.281082 128.17445 z M 107.15848 128.17445 C 108.70159 128.17449 109.95252 129.42541 109.95256 130.96852 C 109.95084 131.13318 109.93457 131.29737 109.90394 131.45917 C 109.12955 131.14202 108.15949 130.96866 107.15848 130.96852 C 106.15731 130.9686 105.18706 131.14197 104.41253 131.45917 C 104.3819 131.29737 104.36561 131.13318 104.36391 130.96852 C 104.36395 129.42522 105.61518 128.17422 107.15848 128.17445 z " /></g></g></g></g></g></svg>
